<svg width="222" height="40" viewBox="0 0 222 40" fill="none" xmlns="http://www.w3.org/2000/svg">
    <path d="M62.0616 31.0645C60.5217 30.5596 59.2913 29.8793 58.3695 29.0242C58.0329 28.7094 57.8633 28.3173 57.8633 27.8454C57.8633 27.5306 57.953 27.2538 58.1336 27.0189C58.3131 26.7819 58.527 26.6643 58.7738 26.6643C59.0662 26.6643 59.3807 26.7884 59.7187 27.0345C61.8086 28.6539 64.1917 29.4628 66.8668 29.4628C68.7997 29.4628 70.2831 29.0925 71.3178 28.3507C72.3514 27.6084 72.8685 26.5517 72.8685 25.1805C72.8685 24.3941 72.6217 23.7603 72.1276 23.2751C71.6323 22.7923 70.9808 22.4044 70.1713 22.112C69.3628 21.8196 68.2714 21.516 66.9001 21.2015C65.0567 20.7761 63.5457 20.3239 62.3649 19.852C61.1851 19.3801 60.2293 18.7062 59.499 17.83C58.768 16.9525 58.4022 15.8064 58.4022 14.3906C58.4022 13.0411 58.7677 11.845 59.499 10.7995C60.229 9.75368 61.2527 8.94482 62.5675 8.3709C63.8826 7.79834 65.3834 7.51172 67.0695 7.51172C68.6426 7.51172 70.1091 7.75278 71.4694 8.23592C72.8297 8.72008 73.9698 9.4113 74.8922 10.3109C75.2512 10.67 75.4318 11.0644 75.4318 11.4907C75.4318 11.8056 75.3406 12.0813 75.1615 12.3173C74.9819 12.5529 74.7681 12.6705 74.5212 12.6705C74.273 12.6705 73.9473 12.5478 73.5431 12.3006C72.4418 11.401 71.4184 10.772 70.4746 10.4119C69.5307 10.0519 68.3955 9.87234 67.0691 9.87234C65.2025 9.87234 63.7528 10.2599 62.7192 11.0355C61.6845 11.811 61.1681 12.8956 61.1681 14.29C61.1681 15.4806 61.6223 16.3748 62.5328 16.9709C63.4434 17.5659 64.8435 18.0884 66.7315 18.5379C68.7776 19.0333 70.3848 19.4892 71.5534 19.9037C72.722 20.3202 73.6947 20.9448 74.4702 21.7757C75.2458 22.6067 75.6334 23.7209 75.6334 25.1142C75.6334 26.4412 75.2679 27.6091 74.5379 28.6213C73.8069 29.6318 72.7787 30.4182 71.4527 30.9806C70.1257 31.5433 68.608 31.8248 66.8998 31.8248C65.2141 31.8248 63.6015 31.5698 62.0616 31.0645Z" fill="#423E40"/>
    <path d="M92.3935 28.0471C92.574 28.2487 92.6638 28.5078 92.6638 28.8223C92.6638 29.385 92.2704 29.9014 91.484 30.3734C90.6741 30.8453 89.819 31.1999 88.9207 31.4345C88.0211 31.6715 87.1449 31.7891 86.2908 31.7891C83.7497 31.7891 81.7433 31.0357 80.2715 29.5315C78.7993 28.0246 78.0625 25.9445 78.0625 23.2925C78.0625 21.6065 78.3882 20.1176 79.0407 18.8242C79.6921 17.5316 80.6091 16.5255 81.7889 15.8057C82.9687 15.0866 84.3124 14.7266 85.8189 14.7266C87.9534 14.7266 89.6507 15.4246 90.9101 16.8179C92.1688 18.2116 92.7988 20.0992 92.7988 22.4833C92.7988 22.9331 92.708 23.2589 92.5285 23.4605C92.349 23.6621 92.0566 23.7641 91.6523 23.7641H80.7941C80.9967 27.6299 82.8279 29.5645 86.2908 29.5645C87.167 29.5645 87.9205 29.4445 88.5498 29.2099C89.1791 28.9729 89.8534 28.6536 90.5735 28.2484C91.1573 27.9118 91.5506 27.7435 91.7533 27.7435C92.0005 27.7438 92.2143 27.8458 92.3935 28.0471ZM82.3961 18.2007C81.5302 19.1003 81.0191 20.3702 80.8621 22.0097H90.4042C90.36 20.3481 89.9435 19.0711 89.157 18.183C88.3706 17.2956 87.2683 16.8516 85.8526 16.8516C84.4134 16.8519 83.2614 17.3017 82.3961 18.2007Z" fill="#423E40"/>
    <path d="M109.016 21.2012V30.3734C109.016 30.7786 108.899 31.1044 108.663 31.3505C108.427 31.5984 108.105 31.7228 107.701 31.7228C107.297 31.7228 106.97 31.5987 106.723 31.3505C106.476 31.1044 106.352 30.7786 106.352 30.3734V28.7536C105.926 29.7219 105.273 30.4686 104.397 30.9983C103.52 31.5256 102.508 31.7891 101.362 31.7891C100.305 31.7891 99.3338 31.5763 98.445 31.1486C97.5566 30.7212 96.8542 30.1272 96.338 29.3608C95.8209 28.5986 95.5625 27.7543 95.5625 26.8326C95.5625 25.5964 95.876 24.6348 96.5063 23.9501C97.1357 23.2633 98.1689 22.7693 99.6082 22.466C101.047 22.1627 103.048 22.0094 105.611 22.0094H106.352V20.8976C106.352 19.5481 106.078 18.5597 105.527 17.93C104.975 17.301 104.082 16.9865 102.846 16.9865C101.316 16.9865 99.7656 17.402 98.1927 18.2337C97.5855 18.6162 97.1581 18.8076 96.9109 18.8076C96.6417 18.8076 96.4169 18.7059 96.2364 18.504C96.0569 18.3013 95.9671 18.0433 95.9671 17.7277C95.9671 17.4129 96.0623 17.1385 96.2541 16.9022C96.4448 16.6666 96.7535 16.4249 97.1812 16.1767C97.9677 15.7268 98.8605 15.3736 99.8618 15.1145C100.861 14.8561 101.856 14.7266 102.846 14.7266C106.959 14.7269 109.016 16.8845 109.016 21.2012ZM105.055 28.2664C105.92 27.3555 106.352 26.1815 106.352 24.7413V23.7644H105.746C103.768 23.7644 102.261 23.8484 101.228 24.0171C100.193 24.1854 99.4562 24.4665 99.0186 24.8609C98.58 25.253 98.3607 25.8333 98.3607 26.5956C98.3607 27.4732 98.6806 28.1977 99.3222 28.7713C99.9624 29.3452 100.766 29.6308 101.732 29.6308C103.082 29.6311 104.189 29.1769 105.055 28.2664Z" fill="#423E40"/>
    <path d="M122.876 15.9409C122.876 16.3009 122.774 16.5879 122.572 16.8007C122.369 17.0142 122.021 17.1441 121.527 17.1883L120.515 17.2903C119.008 17.4246 117.89 17.9594 117.16 18.8921C116.429 19.8254 116.064 20.9198 116.064 22.1805V30.3735C116.064 30.8233 115.94 31.1599 115.693 31.386C115.445 31.6098 115.119 31.723 114.715 31.723C114.31 31.723 113.978 31.6053 113.72 31.3684C113.462 31.1314 113.332 30.8012 113.332 30.3735V16.1438C113.332 15.7161 113.467 15.3853 113.736 15.149C114.006 14.913 114.332 14.7947 114.714 14.7947C115.073 14.7947 115.377 14.913 115.625 15.149C115.872 15.385 115.996 15.7052 115.996 16.1095V17.9982C116.468 17.0088 117.137 16.2567 118.002 15.7386C118.867 15.2221 119.862 14.9188 120.986 14.8291L121.458 14.7947C122.403 14.7271 122.876 15.1102 122.876 15.9409Z" fill="#423E40"/>
    <path d="M126.938 30.7429C125.758 30.0473 124.848 29.0572 124.208 27.7764C123.566 26.4957 123.246 25.0116 123.246 23.3255C123.246 21.6394 123.577 20.1441 124.241 18.8409C124.904 17.537 125.832 16.5255 127.024 15.8057C128.215 15.0866 129.586 14.7266 131.137 14.7266C131.991 14.7266 132.841 14.8452 133.683 15.0812C134.526 15.3168 135.262 15.6602 135.891 16.109C136.297 16.3793 136.582 16.6438 136.752 16.9019C136.92 17.1603 137.005 17.4472 137.005 17.7614C137.005 18.0762 136.92 18.3343 136.752 18.5366C136.582 18.7396 136.364 18.8406 136.094 18.8406C135.936 18.8406 135.768 18.7964 135.587 18.7056C135.408 18.6158 135.256 18.5261 135.132 18.4363C135.009 18.3465 134.925 18.2898 134.88 18.2666C134.295 17.8858 133.739 17.5822 133.21 17.3575C132.682 17.1324 132.036 17.0195 131.272 17.0195C129.63 17.0195 128.355 17.5758 127.444 18.6889C126.534 19.8024 126.079 21.3467 126.079 23.3255C126.079 25.3036 126.534 26.8323 127.444 27.9114C128.355 28.9902 129.63 29.5312 131.272 29.5312C132.036 29.5312 132.693 29.418 133.245 29.1922C133.795 28.9685 134.352 28.6649 134.914 28.2813C135.161 28.1263 135.397 27.991 135.622 27.8781C135.847 27.7652 136.038 27.7098 136.195 27.7098C136.442 27.7098 136.65 27.8094 136.82 28.0134C136.988 28.215 137.072 28.4741 137.072 28.7886C137.072 29.081 136.993 29.3449 136.836 29.5795C136.679 29.8164 136.387 30.0803 135.959 30.3727C135.33 30.8004 134.571 31.1438 133.684 31.4005C132.796 31.6599 131.901 31.7884 131.003 31.7884C129.473 31.7888 128.119 31.441 126.938 30.7429Z" fill="#423E40"/>
    <path d="M152.379 16.3636C153.367 17.4533 153.862 19.0774 153.862 21.2347V30.3736C153.862 30.8013 153.738 31.1315 153.491 31.3684C153.244 31.6054 152.918 31.7231 152.513 31.7231C152.086 31.7231 151.749 31.6054 151.502 31.3684C151.254 31.1315 151.13 30.8013 151.13 30.3736V21.3034C151.13 19.8411 150.833 18.7626 150.238 18.0663C149.642 17.3693 148.691 17.0204 147.387 17.0204C145.882 17.0204 144.679 17.4811 143.78 18.4029C142.88 19.325 142.431 20.5724 142.431 22.1453V30.3736C142.431 30.8013 142.312 31.1315 142.077 31.3684C141.841 31.6054 141.508 31.7231 141.082 31.7231C140.654 31.7231 140.318 31.6054 140.071 31.3684C139.822 31.1315 139.699 30.8013 139.699 30.3736V8.92708C139.699 8.54628 139.829 8.23144 140.087 7.98324C140.345 7.73606 140.677 7.6123 141.082 7.6123C141.508 7.6123 141.841 7.73096 142.077 7.96658C142.312 8.20254 142.431 8.52316 142.431 8.92708V17.7623C142.971 16.7733 143.723 16.0198 144.69 15.5027C145.657 14.9862 146.758 14.7275 147.995 14.7275C149.928 14.7275 151.389 15.2732 152.379 16.3636Z" fill="#423E40"/>
    <path d="M158.955 31.3344C158.708 31.075 158.584 30.7319 158.584 30.3066V9.12935C158.584 8.72509 158.714 8.39937 158.972 8.15117C159.23 7.90399 159.574 7.78125 160.001 7.78125H167.992C170.488 7.78125 172.426 8.38679 173.809 9.60127C175.191 10.8158 175.883 12.5355 175.883 14.7611C175.883 16.9868 175.186 18.718 173.793 19.9536C172.398 21.1898 170.465 21.808 167.992 21.808H161.349V30.3066C161.349 30.7319 161.226 31.0753 160.979 31.3344C160.731 31.5915 160.394 31.7224 159.966 31.7224C159.54 31.7224 159.202 31.5915 158.955 31.3344ZM173.152 14.7608C173.152 11.6362 171.342 10.0728 167.723 10.0728H161.349V19.515H167.723C171.342 19.515 173.152 17.9299 173.152 14.7608Z" fill="#423E40"/>
    <path d="M179.323 10.7822C178.986 10.4674 178.816 10.0512 178.816 9.53372C178.816 9.0397 178.986 8.6351 179.323 8.3206C179.659 8.00576 180.098 7.84766 180.637 7.84766C181.177 7.84766 181.616 8.00576 181.952 8.3206C182.29 8.63544 182.458 9.0397 182.458 9.53372C182.458 10.0509 182.29 10.4674 181.952 10.7822C181.616 11.0967 181.177 11.2538 180.637 11.2538C180.098 11.2538 179.659 11.0967 179.323 10.7822ZM179.643 31.3678C179.385 31.1309 179.255 30.8007 179.255 30.373V16.1437C179.255 15.7159 179.385 15.3851 179.643 15.1488C179.901 14.9125 180.233 14.7945 180.637 14.7945C181.042 14.7945 181.367 14.9129 181.616 15.1488C181.863 15.3848 181.987 15.7159 181.987 16.1437V30.3733C181.987 30.8232 181.863 31.1598 181.616 31.3859C181.368 31.6096 181.042 31.7228 180.637 31.7228C180.233 31.7228 179.901 31.6048 179.643 31.3678Z" fill="#423E40"/>
    <path d="M187.466 31.3684C187.208 31.1315 187.078 30.8013 187.078 30.3736V8.96142C187.078 8.53506 187.208 8.20288 187.466 7.96658C187.724 7.73096 188.056 7.6123 188.461 7.6123C188.843 7.6123 189.163 7.73096 189.422 7.96658C189.68 8.20254 189.81 8.53506 189.81 8.96142V30.3739C189.81 30.8017 189.68 31.1318 189.422 31.3688C189.163 31.6058 188.843 31.7234 188.461 31.7234C188.056 31.7231 187.724 31.6054 187.466 31.3684Z" fill="#423E40"/>
    <path d="M196.94 30.7432C195.76 30.0476 194.85 29.0528 194.209 27.7594C193.568 26.4674 193.248 24.9677 193.248 23.2598C193.248 21.5517 193.568 20.0496 194.209 18.7572C194.85 17.4645 195.761 16.4697 196.94 15.773C198.121 15.0764 199.487 14.7275 201.038 14.7275C202.588 14.7275 203.96 15.0764 205.152 15.773C206.343 16.47 207.259 17.4649 207.9 18.7572C208.54 20.0496 208.86 21.5517 208.86 23.2598C208.86 24.9677 208.54 26.4677 207.9 27.7594C207.259 29.0531 206.343 30.0476 205.152 30.7432C203.96 31.4413 202.588 31.7891 201.038 31.7891C199.487 31.7891 198.121 31.4413 196.94 30.7432ZM204.764 27.9297C205.629 26.8618 206.062 25.3043 206.062 23.2598C206.062 21.2589 205.624 19.7126 204.746 18.6219C203.87 17.5322 202.634 16.9868 201.038 16.9868C199.441 16.9868 198.205 17.5322 197.329 18.6219C196.452 19.7126 196.013 21.2589 196.013 23.2598C196.013 25.2825 196.446 26.8332 197.311 27.9124C198.176 28.9912 199.419 29.5322 201.038 29.5322C202.656 29.5322 203.898 28.9973 204.764 27.9297Z" fill="#423E40"/>
    <path d="M221.002 30.644C221.002 31.0251 220.861 31.3131 220.58 31.5035C220.299 31.6939 219.878 31.767 219.316 31.7231L218.405 31.6545C216.606 31.5215 215.28 30.9809 214.426 30.0371C213.571 29.0932 213.144 27.6642 213.144 25.7544V17.2908H210.885C210.503 17.2908 210.205 17.1956 209.992 17.0039C209.778 16.8131 209.672 16.5595 209.672 16.245C209.672 15.9084 209.778 15.6381 209.992 15.4354C210.205 15.2335 210.503 15.1328 210.885 15.1328H213.144V11.3221C213.144 10.8944 213.267 10.5636 213.516 10.3273C213.763 10.0917 214.099 9.97266 214.527 9.97266C214.931 9.97266 215.257 10.0917 215.505 10.3273C215.752 10.5632 215.876 10.8944 215.876 11.3221V15.1328H219.618C219.978 15.1328 220.265 15.2335 220.479 15.4354C220.692 15.6381 220.799 15.9084 220.799 16.245C220.799 16.5598 220.692 16.8135 220.479 17.0039C220.265 17.1953 219.978 17.2908 219.618 17.2908H215.876V25.8898C215.876 27.126 216.129 28.0188 216.635 28.5707C217.14 29.1221 217.899 29.4302 218.91 29.4968L219.821 29.5655C220.607 29.6318 221.002 29.9925 221.002 30.644Z" fill="#423E40"/>
    <path d="M23.7721 23.7759C26.043 21.5061 26.043 17.8273 23.7721 15.5629L9.91406 1.70008C7.64422 -0.566695 3.9678 -0.566695 1.70238 1.70008C-0.56746 3.9689 -0.56746 7.64635 1.70238 9.91211L15.5615 23.7756C17.8255 26.0403 21.5033 26.0403 23.7721 23.7759Z" fill="#FFB901"/>
    <path d="M1.70204 29.4233L15.5611 15.5598C15.6165 15.5027 15.8977 15.2419 15.9586 15.1899C19.942 11.2908 16.3254 8.11621 16.3254 8.11621L23.7531 15.5449C23.7629 15.5527 23.7674 15.5568 23.7721 15.5629C23.781 15.5673 23.781 15.5772 23.7922 15.583L23.8619 15.6527H23.8476C26.0331 17.9245 26.0134 21.533 23.7725 23.7763L9.9144 37.6343C7.64456 39.9032 3.96814 39.9032 1.70272 37.6343C-0.56746 35.3652 -0.56746 31.6898 1.70204 29.4233Z" fill="#E80A84"/>
    <path d="M47.2198 23.7756C49.4897 21.5058 49.4897 17.827 47.2198 15.5626L33.3618 1.70008C31.0919 -0.566695 27.4131 -0.566695 25.1477 1.70008C22.8779 3.9689 22.8779 7.64634 25.1477 9.91211L39.0092 23.7756C41.2736 26.04 44.9503 26.04 47.2198 23.7756Z" fill="#FFB901"/>
    <path d="M25.1478 29.4233L39.0092 15.5598C39.0636 15.5027 39.3472 15.2419 39.4067 15.1899C43.3901 11.2908 39.7746 8.11621 39.7746 8.11621L47.1998 15.5449C47.2097 15.5527 47.2165 15.5568 47.2199 15.5629C47.2298 15.5673 47.2297 15.5772 47.2386 15.583L47.3086 15.6527H47.2943C49.4809 17.9245 49.4612 21.533 47.2202 23.7763L33.3622 37.6343C31.0923 39.9032 27.4135 39.9032 25.1481 37.6343C22.8779 35.3652 22.8779 31.6898 25.1478 29.4233Z" fill="#7603DB"/>
</svg>
